<svg xmlns="http://www.w3.org/2000/svg" xmlns:xlink="http://www.w3.org/1999/xlink" version="1.1" id="Layer_1" x="0px" y="0px" viewBox="0 0 126.291 15.667" style="enable-background:new 0 0 126.291 15.667;" xml:space="preserve">
<style type="text/css">
	.st0{fill:#00B1A6;}
	.st1{display:none;}
	.st2{display:inline;fill:#D31B65;}
	.st3{display:inline;fill:#EF498B;}
	.st4{fill:#F04E4E;}
	.st5{fill:#FFFFFF;stroke:#000000;stroke-width:3;stroke-linejoin:bevel;stroke-miterlimit:10;}
	.st6{fill:none;stroke:#000000;stroke-width:3;stroke-linecap:round;stroke-linejoin:bevel;stroke-miterlimit:10;}
	.st7{fill:none;stroke:#000000;stroke-width:3;stroke-miterlimit:10;}
	.st8{fill:#FFFFFF;}
	.st9{opacity:0.6;}
	.st10{fill:none;stroke:#FFFFFF;stroke-width:2;stroke-miterlimit:10;}
	.st11{fill:none;stroke:#FFFFFF;stroke-width:2;stroke-miterlimit:10;stroke-dasharray:2.9467,2.9467;}
	.st12{fill:none;stroke:#000000;stroke-width:4;stroke-miterlimit:10;}
	.st13{fill:none;stroke:#000000;stroke-width:3;stroke-miterlimit:10;stroke-dasharray:3,3;}
	.st14{fill:none;stroke:#FFFFFF;stroke-width:3;stroke-miterlimit:10;stroke-dasharray:3,3;}
	.st15{fill:#010101;}
	.st16{fill:none;stroke:#FFFFFF;stroke-width:2;stroke-linejoin:bevel;stroke-miterlimit:10;}
	.st17{fill:none;stroke:#FFFFFF;stroke-width:2.3;stroke-linejoin:bevel;stroke-miterlimit:10;}
	.st18{fill:url(#SVGID_1_);}
	.st19{fill:url(#SVGID_2_);}
	.st20{fill:url(#SVGID_3_);}
	.st21{fill:url(#SVGID_4_);}
	.st22{fill:url(#SVGID_5_);}
	.st23{fill:url(#SVGID_6_);}
	.st24{fill:url(#SVGID_7_);}
	.st25{fill:url(#SVGID_8_);}
	.st26{fill:url(#SVGID_9_);}
	.st27{fill:url(#SVGID_10_);}
</style>
<g>
	<linearGradient id="SVGID_1_" gradientUnits="userSpaceOnUse" x1="-9.611" y1="7.8078" x2="187.5438" y2="7.8078">
		<stop offset="0" style="stop-color:#70C9BD"/>
		<stop offset="1" style="stop-color:#3E98D3"/>
	</linearGradient>
	<path class="st18" d="M0,1.907h8.951v2.367H5.804v9.435H3.136V4.274H0V1.907z"/>
	<linearGradient id="SVGID_2_" gradientUnits="userSpaceOnUse" x1="-9.611" y1="7.8083" x2="187.5438" y2="7.8083">
		<stop offset="0" style="stop-color:#70C9BD"/>
		<stop offset="1" style="stop-color:#3E98D3"/>
	</linearGradient>
	<path class="st19" d="M20.831,7.693c0,1.16-0.112,2.144-0.334,2.953c-0.221,0.81-0.605,1.483-1.148,2.019   c-0.874,0.862-2.147,1.294-3.82,1.294c-1.668,0-2.926-0.428-3.774-1.283c-0.486-0.494-0.832-1.128-1.037-1.902   c-0.206-0.773-0.309-1.722-0.309-2.848c0-1.155,0.111-2.139,0.331-2.953c0.22-0.813,0.6-1.486,1.14-2.018   c0.874-0.866,2.147-1.299,3.82-1.299c1.675,0,2.936,0.428,3.78,1.283c0.486,0.493,0.834,1.129,1.041,1.906   S20.831,6.573,20.831,7.693z M17.992,7.802c0-0.92-0.048-1.635-0.146-2.146c-0.096-0.512-0.267-0.9-0.51-1.166   c-0.358-0.388-0.913-0.581-1.665-0.581c-0.802,0-1.391,0.22-1.767,0.661c-0.24,0.281-0.41,0.671-0.511,1.168   c-0.1,0.498-0.151,1.196-0.151,2.093s0.048,1.607,0.145,2.129c0.097,0.523,0.268,0.916,0.511,1.178   c0.35,0.379,0.902,0.57,1.659,0.57c0.809,0,1.403-0.223,1.779-0.668c0.243-0.281,0.413-0.668,0.51-1.16   C17.943,9.388,17.992,8.695,17.992,7.802z"/>
	<linearGradient id="SVGID_3_" gradientUnits="userSpaceOnUse" x1="-9.611" y1="7.8078" x2="187.5438" y2="7.8078">
		<stop offset="0" style="stop-color:#70C9BD"/>
		<stop offset="1" style="stop-color:#3E98D3"/>
	</linearGradient>
	<path class="st20" d="M23.755,1.907h3.563l2.349,7.617l2.377-7.617h3.535l0.673,11.801h-2.611l-0.314-8.859l-2.468,8.312h-2.434   l-2.447-8.317l-0.336,8.865h-2.577L23.755,1.907z"/>
	<linearGradient id="SVGID_4_" gradientUnits="userSpaceOnUse" x1="-9.611" y1="7.8108" x2="187.5438" y2="7.8108">
		<stop offset="0" style="stop-color:#70C9BD"/>
		<stop offset="1" style="stop-color:#3E98D3"/>
	</linearGradient>
	<path class="st21" d="M47.938,7.044h4.475v6.088c-1.281,0.498-2.634,0.748-4.058,0.748c-0.946,0-1.742-0.106-2.386-0.317   c-0.645-0.21-1.185-0.527-1.622-0.948c-0.281-0.274-0.517-0.582-0.706-0.924c-0.191-0.342-0.333-0.719-0.428-1.129   c-0.095-0.41-0.161-0.818-0.197-1.223c-0.037-0.404-0.054-0.867-0.054-1.387c0-1.182,0.106-2.175,0.317-2.977   c0.21-0.802,0.59-1.466,1.137-1.995c0.862-0.824,2.164-1.237,3.905-1.237c1.771,0,3.098,0.405,3.98,1.214L50.771,4.82   c-0.643-0.52-1.51-0.78-2.606-0.78c-0.871,0-1.483,0.201-1.835,0.604c-0.205,0.232-0.352,0.575-0.439,1.032   c-0.088,0.456-0.131,1.152-0.131,2.087c0,1.083,0.047,1.862,0.143,2.338c0.094,0.475,0.254,0.832,0.479,1.072   c0.361,0.38,0.986,0.57,1.875,0.57c0.631,0,1.212-0.071,1.744-0.211V9.176h-2.063V7.044z"/>
	<linearGradient id="SVGID_5_" gradientUnits="userSpaceOnUse" x1="-9.611" y1="7.8078" x2="187.5438" y2="7.8078">
		<stop offset="0" style="stop-color:#70C9BD"/>
		<stop offset="1" style="stop-color:#3E98D3"/>
	</linearGradient>
	<path class="st22" d="M55.474,1.907h7.069v2.2h-4.47v2.52h4.082v2.2h-4.082v2.684h4.556v2.195h-7.155V1.907z"/>
	<linearGradient id="SVGID_6_" gradientUnits="userSpaceOnUse" x1="-9.611" y1="7.8078" x2="187.5438" y2="7.8078">
		<stop offset="0" style="stop-color:#70C9BD"/>
		<stop offset="1" style="stop-color:#3E98D3"/>
	</linearGradient>
	<path class="st23" d="M65.571,1.907h4.8c1.22,0,2.155,0.211,2.805,0.633c0.418,0.27,0.737,0.623,0.958,1.06s0.33,0.999,0.33,1.687   c0,0.832-0.188,1.527-0.564,2.086c-0.376,0.558-0.951,0.94-1.722,1.145c0.254,0.045,0.48,0.124,0.676,0.237   c0.196,0.112,0.37,0.27,0.524,0.473c0.154,0.204,0.288,0.437,0.402,0.699c0.114,0.262,0.217,0.589,0.311,0.978   c0.093,0.39,0.174,0.804,0.242,1.244c0.069,0.439,0.137,0.959,0.206,1.56h-2.794c-0.065-0.438-0.122-0.807-0.173-1.107   c-0.051-0.3-0.108-0.598-0.168-0.891c-0.062-0.292-0.118-0.532-0.171-0.719c-0.053-0.187-0.116-0.365-0.189-0.534   c-0.072-0.169-0.145-0.301-0.219-0.397c-0.074-0.094-0.161-0.177-0.261-0.248c-0.102-0.07-0.208-0.119-0.322-0.146   c-0.115-0.027-0.246-0.04-0.394-0.04h-1.608v4.082h-2.668V1.907z M68.239,4.176v3.209h1.289c0.372,0,0.683-0.025,0.932-0.074   c0.248-0.049,0.471-0.139,0.667-0.271c0.196-0.13,0.339-0.318,0.431-0.563c0.091-0.245,0.136-0.555,0.136-0.93   c0-0.535-0.119-0.905-0.359-1.11c-0.194-0.174-0.564-0.261-1.112-0.261H68.239z"/>
	<linearGradient id="SVGID_7_" gradientUnits="userSpaceOnUse" x1="-9.611" y1="7.8078" x2="187.5438" y2="7.8078">
		<stop offset="0" style="stop-color:#70C9BD"/>
		<stop offset="1" style="stop-color:#3E98D3"/>
	</linearGradient>
	<path class="st24" d="M77.627,1.907h3.563l2.349,7.617l2.377-7.617h3.535l0.673,11.801h-2.611l-0.314-8.859l-2.468,8.312h-2.434   L79.85,4.844l-0.336,8.865h-2.577L77.627,1.907z"/>
	<linearGradient id="SVGID_8_" gradientUnits="userSpaceOnUse" x1="-9.611" y1="7.8078" x2="187.5438" y2="7.8078">
		<stop offset="0" style="stop-color:#70C9BD"/>
		<stop offset="1" style="stop-color:#3E98D3"/>
	</linearGradient>
	<path class="st25" d="M93.037,1.907h7.069v2.2h-4.47v2.52h4.082v2.2h-4.082v2.684h4.556v2.195h-7.155V1.907z"/>
	<linearGradient id="SVGID_9_" gradientUnits="userSpaceOnUse" x1="-9.611" y1="7.8078" x2="187.5438" y2="7.8078">
		<stop offset="0" style="stop-color:#70C9BD"/>
		<stop offset="1" style="stop-color:#3E98D3"/>
	</linearGradient>
	<path class="st26" d="M112.687,13.708h-2.804l-0.673-2.32h-3.94l-0.684,2.32h-2.725l3.826-11.801h3.192L112.687,13.708z    M108.651,9.273l-1.397-4.709l-1.408,4.709H108.651z"/>
	<linearGradient id="SVGID_10_" gradientUnits="userSpaceOnUse" x1="-9.611" y1="7.9103" x2="187.5438" y2="7.9103">
		<stop offset="0" style="stop-color:#70C9BD"/>
		<stop offset="1" style="stop-color:#3E98D3"/>
	</linearGradient>
	<path class="st27" d="M114.346,1.907h2.674v7.611c0,0.208,0.003,0.383,0.011,0.524c0.007,0.14,0.027,0.292,0.056,0.453   c0.031,0.162,0.074,0.293,0.128,0.394c0.055,0.1,0.132,0.201,0.231,0.301c0.099,0.102,0.219,0.179,0.36,0.234   c0.14,0.055,0.312,0.1,0.513,0.134c0.202,0.034,0.434,0.051,0.695,0.051c0.251,0,0.474-0.016,0.668-0.048   c0.194-0.033,0.361-0.075,0.501-0.128c0.14-0.053,0.259-0.127,0.357-0.223c0.096-0.095,0.173-0.195,0.231-0.299   c0.056-0.105,0.102-0.236,0.134-0.394c0.032-0.157,0.053-0.313,0.065-0.465c0.012-0.152,0.017-0.334,0.017-0.548V1.907h2.674v7.565   c0,0.635-0.061,1.199-0.179,1.691c-0.12,0.492-0.332,0.924-0.636,1.296c-0.795,0.97-2.102,1.454-3.923,1.454   c-1.729,0-2.966-0.431-3.711-1.294c-0.33-0.38-0.558-0.821-0.681-1.326c-0.124-0.503-0.186-1.082-0.186-1.736V1.907z"/>
</g>
</svg>